<svg width="552" height="150" viewBox="0 0 552 150" fill="none" xmlns="http://www.w3.org/2000/svg">
<g opacity="0.9">
<g style="mix-blend-mode:plus-lighter">
<path d="M462.954 99.0164C462.954 99.5596 388.721 100 297.151 100C205.581 100 131.349 99.5596 131.349 99.0164C131.349 98.4732 205.581 98.0328 297.151 98.0328C388.721 98.0328 462.954 98.4732 462.954 99.0164Z" fill="url(#paint0_linear_646_77784)"/>
<path d="M512.619 95.1639C512.619 95.6619 416.151 96.0656 297.151 96.0656C178.152 96.0656 81.6843 95.6619 81.6843 95.1639C81.6843 94.666 178.152 94.2623 297.151 94.2623C416.151 94.2623 512.619 94.666 512.619 95.1639Z" fill="url(#paint1_linear_646_77784)"/>
<path d="M532 91.1475C532 91.7813 426.787 92.2951 297 92.2951C167.213 92.2951 62 91.7813 62 91.1475C62 90.5138 167.213 90 297 90C426.787 90 532 90.5138 532 91.1475Z" fill="url(#paint2_linear_646_77784)"/>
</g>
<g style="mix-blend-mode:hard-light" filter="url(#filter0_f_646_77784)">
<path d="M263.5 101.001C309.212 95.2967 362.6 91.7304 418.537 90.6446L510 88.8693L418.537 87.094C362.6 86.0082 309.212 82.4419 263.5 76.7376C217.788 82.4419 164.4 86.0082 108.463 87.094L17 88.8693L108.463 90.6446C164.4 91.7304 217.788 95.2967 263.5 101.001Z" fill="url(#paint3_linear_646_77784)"/>
</g>
<g style="mix-blend-mode:plus-lighter" filter="url(#filter1_f_646_77784)">
<path d="M311.084 99.6475C347.971 94.7613 391.054 91.7065 436.192 90.7765L509.999 89.2558L436.192 87.7351C391.054 86.8051 347.971 83.7502 311.084 78.8641C274.196 83.7502 231.114 86.8051 185.975 87.7351L112.168 89.2558L185.975 90.7765C231.114 91.7065 274.196 94.7613 311.084 99.6475Z" fill="url(#paint4_linear_646_77784)"/>
</g>
<g style="mix-blend-mode:plus-lighter" filter="url(#filter2_f_646_77784)">
<path d="M276 99.4053C313.83 92.9624 358.014 88.9343 404.306 87.708L480 85.7028L404.306 83.6976C358.014 82.4712 313.83 78.4431 276 72.0003C238.17 78.4431 193.986 82.4712 147.694 83.6976L72 85.7028L147.694 87.708C193.986 88.9343 238.17 92.9624 276 99.4053Z" fill="url(#paint5_linear_646_77784)"/>
</g>
</g>
<defs>
<filter id="filter0_f_646_77784" x="2.3" y="62.0373" width="522.4" height="53.6637" filterUnits="userSpaceOnUse" color-interpolation-filters="sRGB">
<feFlood flood-opacity="0" result="BackgroundImageFix"/>
<feBlend mode="normal" in="SourceGraphic" in2="BackgroundImageFix" result="shape"/>
<feGaussianBlur stdDeviation="7.35" result="effect1_foregroundBlur_646_77784"/>
</filter>
<filter id="filter1_f_646_77784" x="97.968" y="64.6643" width="426.232" height="49.1832" filterUnits="userSpaceOnUse" color-interpolation-filters="sRGB">
<feFlood flood-opacity="0" result="BackgroundImageFix"/>
<feBlend mode="normal" in="SourceGraphic" in2="BackgroundImageFix" result="shape"/>
<feGaussianBlur stdDeviation="7.1" result="effect1_foregroundBlur_646_77784"/>
</filter>
<filter id="filter2_f_646_77784" x="0.0999985" y="0.0999985" width="551.8" height="171.205" filterUnits="userSpaceOnUse" color-interpolation-filters="sRGB">
<feFlood flood-opacity="0" result="BackgroundImageFix"/>
<feBlend mode="normal" in="SourceGraphic" in2="BackgroundImageFix" result="shape"/>
<feGaussianBlur stdDeviation="35.95" result="effect1_foregroundBlur_646_77784"/>
</filter>
<linearGradient id="paint0_linear_646_77784" x1="249.356" y1="100.846" x2="248.188" y2="77.093" gradientUnits="userSpaceOnUse">
<stop stop-color="#8593D7"/>
<stop offset="0.674093" stop-color="#029B6B"/>
<stop offset="1" stop-color="#00324B"/>
</linearGradient>
<linearGradient id="paint1_linear_646_77784" x1="249.356" y1="100.846" x2="248.188" y2="77.093" gradientUnits="userSpaceOnUse">
<stop stop-color="#8593D7"/>
<stop offset="0.674093" stop-color="#029B6B"/>
<stop offset="1" stop-color="#00324B"/>
</linearGradient>
<linearGradient id="paint2_linear_646_77784" x1="249.356" y1="100.846" x2="248.188" y2="77.093" gradientUnits="userSpaceOnUse">
<stop stop-color="#8593D7"/>
<stop offset="0.674093" stop-color="#029B6B"/>
<stop offset="1" stop-color="#00324B"/>
</linearGradient>
<linearGradient id="paint3_linear_646_77784" x1="213.525" y1="74.6853" x2="223.743" y2="134.304" gradientUnits="userSpaceOnUse">
<stop stop-color="#1935BD"/>
<stop offset="0.674093" stop-color="#1DEFAD"/>
<stop offset="1" stop-color="#00324B"/>
</linearGradient>
<linearGradient id="paint4_linear_646_77784" x1="150.269" y1="97.638" x2="155.914" y2="49.8585" gradientUnits="userSpaceOnUse">
<stop stop-color="#134218"/>
<stop offset="0.674093" stop-color="#012B41"/>
<stop offset="1" stop-color="#2BA262"/>
</linearGradient>
<linearGradient id="paint5_linear_646_77784" x1="276" y1="99.4053" x2="276" y2="72.0003" gradientUnits="userSpaceOnUse">
<stop stop-color="#B5F6FF" stop-opacity="0"/>
<stop offset="0.4" stop-color="#3D898D"/>
<stop offset="0.635" stop-color="#4CA98D"/>
<stop offset="0.882088" stop-color="white"/>
<stop offset="1" stop-opacity="0"/>
</linearGradient>
</defs>
</svg>
