<svg width="537" height="134" viewBox="0 0 537 134" fill="none" xmlns="http://www.w3.org/2000/svg">
<g style="mix-blend-mode:hard-light" filter="url(#filter0_f_646_77778)">
<path d="M268.5 49C314.212 54.8774 367.6 58.5521 423.537 59.6708L515 61.5L423.537 63.3292C367.6 64.4479 314.212 68.1226 268.5 74C222.788 68.1226 169.4 64.4479 113.463 63.3292L22 61.5L113.463 59.6708C169.4 58.5521 222.788 54.8774 268.5 49Z" fill="url(#paint0_linear_646_77778)"/>
</g>
<g style="mix-blend-mode:plus-lighter" filter="url(#filter1_f_646_77778)">
<path d="M316.084 46.96C352.971 54.0364 396.054 58.4606 441.192 59.8075L514.999 62.0099L441.192 64.2123C396.054 65.5592 352.971 69.9834 316.084 77.0599C279.196 69.9834 236.114 65.5592 190.975 64.2123L117.168 62.0099L190.975 59.8075C236.114 58.4606 279.196 54.0364 316.084 46.96Z" fill="url(#paint1_linear_646_77778)"/>
</g>
<g style="mix-blend-mode:plus-lighter" filter="url(#filter2_f_646_77778)">
<path d="M281 47.3105C318.83 56.6415 363.014 62.4753 409.306 64.2514L485 67.1555L409.306 70.0596C363.014 71.8356 318.83 77.6694 281 87.0004C243.17 77.6694 198.986 71.8356 152.694 70.0596L77 67.1555L152.694 64.2514C198.986 62.4753 243.17 56.6415 281 47.3105Z" fill="url(#paint2_linear_646_77778)"/>
</g>
<g style="mix-blend-mode:plus-lighter" filter="url(#filter3_f_646_77778)">
<path d="M371.595 45.9836C371.595 45.4404 333.532 45 286.578 45C239.624 45 201.56 45.4404 201.56 45.9836C201.56 46.5268 239.624 46.9672 286.578 46.9672C333.532 46.9672 371.595 46.5268 371.595 45.9836Z" fill="url(#paint3_linear_646_77778)"/>
<path d="M397.062 49.8361C397.062 49.3381 347.596 48.9344 286.578 48.9344C225.559 48.9344 176.093 49.3381 176.093 49.8361C176.093 50.334 225.559 50.7377 286.578 50.7377C347.596 50.7377 397.062 50.334 397.062 49.8361Z" fill="url(#paint4_linear_646_77778)"/>
<path d="M407 53.8525C407 53.2187 353.05 52.7049 286.5 52.7049C219.95 52.7049 166 53.2187 166 53.8525C166 54.4862 219.95 55 286.5 55C353.05 55 407 54.4862 407 53.8525Z" fill="url(#paint5_linear_646_77778)"/>
</g>
<defs>
<filter id="filter0_f_646_77778" x="0.1" y="27.1" width="536.8" height="68.8" filterUnits="userSpaceOnUse" color-interpolation-filters="sRGB">
<feFlood flood-opacity="0" result="BackgroundImageFix"/>
<feBlend mode="normal" in="SourceGraphic" in2="BackgroundImageFix" result="shape"/>
<feGaussianBlur stdDeviation="10.95" result="effect1_foregroundBlur_646_77778"/>
</filter>
<filter id="filter1_f_646_77778" x="105.068" y="34.86" width="422.032" height="54.2996" filterUnits="userSpaceOnUse" color-interpolation-filters="sRGB">
<feFlood flood-opacity="0" result="BackgroundImageFix"/>
<feBlend mode="normal" in="SourceGraphic" in2="BackgroundImageFix" result="shape"/>
<feGaussianBlur stdDeviation="6.05" result="effect1_foregroundBlur_646_77778"/>
</filter>
<filter id="filter2_f_646_77778" x="30.3" y="0.610546" width="501.4" height="133.089" filterUnits="userSpaceOnUse" color-interpolation-filters="sRGB">
<feFlood flood-opacity="0" result="BackgroundImageFix"/>
<feBlend mode="normal" in="SourceGraphic" in2="BackgroundImageFix" result="shape"/>
<feGaussianBlur stdDeviation="23.35" result="effect1_foregroundBlur_646_77778"/>
</filter>
<filter id="filter3_f_646_77778" x="165" y="44" width="243" height="12" filterUnits="userSpaceOnUse" color-interpolation-filters="sRGB">
<feFlood flood-opacity="0" result="BackgroundImageFix"/>
<feBlend mode="normal" in="SourceGraphic" in2="BackgroundImageFix" result="shape"/>
<feGaussianBlur stdDeviation="0.5" result="effect1_foregroundBlur_646_77778"/>
</filter>
<linearGradient id="paint0_linear_646_77778" x1="218.525" y1="76.1147" x2="229.353" y2="14.7935" gradientUnits="userSpaceOnUse">
<stop stop-color="#1935BD"/>
<stop offset="0.674093" stop-color="#1DEFAD"/>
<stop offset="1" stop-color="#00324B"/>
</linearGradient>
<linearGradient id="paint1_linear_646_77778" x1="155.269" y1="49.8702" x2="166.934" y2="118.038" gradientUnits="userSpaceOnUse">
<stop stop-color="#1935BD"/>
<stop offset="0.674093" stop-color="#012B41"/>
<stop offset="1" stop-color="#2BA262"/>
</linearGradient>
<linearGradient id="paint2_linear_646_77778" x1="281" y1="47.3105" x2="281" y2="87.0004" gradientUnits="userSpaceOnUse">
<stop stop-color="#B5F6FF"/>
<stop offset="0.333965" stop-color="#3D8D75"/>
<stop offset="0.732357" stop-color="#B3F6FF"/>
<stop offset="0.882088" stop-color="white"/>
<stop offset="1" stop-opacity="0"/>
</linearGradient>
<linearGradient id="paint3_linear_646_77778" x1="262.07" y1="44.1541" x2="259.806" y2="67.7473" gradientUnits="userSpaceOnUse">
<stop stop-color="#8593D7"/>
<stop offset="0.674093" stop-color="#029B6B"/>
<stop offset="1" stop-color="#00324B"/>
</linearGradient>
<linearGradient id="paint4_linear_646_77778" x1="262.07" y1="44.1541" x2="259.806" y2="67.7473" gradientUnits="userSpaceOnUse">
<stop stop-color="#8593D7"/>
<stop offset="0.674093" stop-color="#029B6B"/>
<stop offset="1" stop-color="#00324B"/>
</linearGradient>
<linearGradient id="paint5_linear_646_77778" x1="262.07" y1="44.1541" x2="259.806" y2="67.7473" gradientUnits="userSpaceOnUse">
<stop stop-color="#8593D7"/>
<stop offset="0.674093" stop-color="#029B6B"/>
<stop offset="1" stop-color="#00324B"/>
</linearGradient>
</defs>
</svg>
